<svg width="13" height="14" viewBox="0 0 13 14" fill="none" xmlns="http://www.w3.org/2000/svg">
<path d="M0.5 2.5C0.5 1.94772 0.947715 1.5 1.5 1.5H11.5C12.0523 1.5 12.5 1.94772 12.5 2.5V12.5C12.5 13.0523 12.0523 13.5 11.5 13.5H1.5C0.947715 13.5 0.5 13.0523 0.5 12.5V2.5Z" stroke="#355A6E" stroke-linecap="round" stroke-linejoin="round"/>
<path fill-rule="evenodd" clip-rule="evenodd" d="M3 0.5C3 0.223858 3.22386 0 3.5 0C3.77614 0 4 0.223858 4 0.5V2.5C4 2.77614 3.77614 3 3.5 3C3.22386 3 3 2.77614 3 2.5V0.5ZM0 5H13V6H0V5ZM9.5 0C9.22386 0 9 0.223858 9 0.5V2.5C9 2.77614 9.22386 3 9.5 3C9.77614 3 10 2.77614 10 2.5V0.5C10 0.223858 9.77614 0 9.5 0Z" fill="#355A6E"/>
</svg>
