<svg width="8" height="5" viewBox="0 0 8 5" fill="none" xmlns="http://www.w3.org/2000/svg">
<path fill-rule="evenodd" clip-rule="evenodd" d="M6.19889 4.50883C6.47985 4.81319 6.95434 4.83217 7.25871 4.55122C7.56307 4.27027 7.58205 3.79577 7.3011 3.49141L4.30687 0.247663C4.29831 0.238194 4.28946 0.228896 4.28033 0.21978C4.13475 0.073997 3.94266 0.000162125 3.75 0.000114441C3.63921 8.72612e-05 3.52825 0.0244565 3.42583 0.0735731C3.3511 0.10935 3.28122 0.158132 3.21966 0.21978C3.21053 0.2289 3.20167 0.238203 3.19311 0.247677L0.198894 3.49141C-0.0820589 3.79577 -0.0630794 4.27027 0.241286 4.55122C0.545652 4.83217 1.02015 4.81319 1.3011 4.50883L3.75 1.85586L6.19889 4.50883Z" fill="#779EB2"/>
</svg>
