<svg width="250" height="66" viewBox="0 0 250 66" fill="none" xmlns="http://www.w3.org/2000/svg">
<g filter="url(#filter0_d)">
<rect x="10" y="6" width="230" height="46" rx="23" fill="#FFC045"/>
</g>
<path d="M63.3758 26.5117C62.5711 26.5117 61.9383 26.7969 61.4773 27.3672C61.0164 27.9375 60.7859 28.7246 60.7859 29.7285C60.7859 30.7793 61.0066 31.5742 61.448 32.1133C61.8934 32.6523 62.5359 32.9219 63.3758 32.9219C63.7391 32.9219 64.0906 32.8867 64.4305 32.8164C64.7703 32.7422 65.1238 32.6484 65.491 32.5352V33.7363C64.8191 33.9902 64.0574 34.1172 63.2059 34.1172C61.952 34.1172 60.9891 33.7383 60.3172 32.9805C59.6453 32.2188 59.3094 31.1309 59.3094 29.7168C59.3094 28.8262 59.4715 28.0469 59.7957 27.3789C60.1238 26.7109 60.5965 26.1992 61.2137 25.8438C61.8309 25.4883 62.5555 25.3105 63.3875 25.3105C64.2625 25.3105 65.0711 25.4941 65.8133 25.8613L65.3094 27.0273C65.0203 26.8906 64.7137 26.7715 64.3895 26.6699C64.0691 26.5645 63.7312 26.5117 63.3758 26.5117ZM69.9371 29.418H70.9098C71.5621 29.418 72.0348 29.2969 72.3277 29.0547C72.6207 28.8125 72.7672 28.4531 72.7672 27.9766C72.7672 27.4922 72.609 27.1445 72.2926 26.9336C71.9762 26.7227 71.4996 26.6172 70.8629 26.6172H69.9371V29.418ZM69.9371 30.5781V34H68.5367V25.4336H70.9566C72.0621 25.4336 72.8805 25.6406 73.4117 26.0547C73.943 26.4688 74.2086 27.0938 74.2086 27.9297C74.2086 28.9961 73.6539 29.7559 72.5445 30.209L74.9645 34H73.3707L71.3199 30.5781H69.9371ZM82.2582 34H77.4125V25.4336H82.2582V26.6172H78.8129V28.9492H82.0414V30.1211H78.8129V32.8105H82.2582V34ZM90.6301 34L89.7746 31.6211H86.4992L85.6613 34H84.1848L87.3898 25.3984H88.9133L92.1184 34H90.6301ZM89.4055 30.4141L88.6027 28.082C88.5441 27.9258 88.4621 27.6797 88.3566 27.3438C88.2551 27.0078 88.1848 26.7617 88.1457 26.6055C88.0402 27.0859 87.8859 27.6113 87.6828 28.1816L86.9094 30.4141H89.4055ZM97.4082 34H96.0078V26.6348H93.4883V25.4336H99.9277V26.6348H97.4082V34ZM107.292 34H102.446V25.4336H107.292V26.6172H103.846V28.9492H107.075V30.1211H103.846V32.8105H107.292V34ZM119.606 31.6738C119.606 32.4355 119.33 33.0332 118.78 33.4668C118.229 33.9004 117.469 34.1172 116.5 34.1172C115.532 34.1172 114.739 33.9668 114.121 33.666V32.3418C114.512 32.5254 114.926 32.6699 115.364 32.7754C115.805 32.8809 116.215 32.9336 116.594 32.9336C117.149 32.9336 117.557 32.8281 117.819 32.6172C118.084 32.4062 118.217 32.123 118.217 31.7676C118.217 31.4473 118.096 31.1758 117.854 30.9531C117.612 30.7305 117.112 30.4668 116.354 30.1621C115.573 29.8457 115.022 29.4844 114.702 29.0781C114.381 28.6719 114.221 28.1836 114.221 27.6133C114.221 26.8984 114.475 26.3359 114.983 25.9258C115.491 25.5156 116.172 25.3105 117.028 25.3105C117.848 25.3105 118.664 25.4902 119.477 25.8496L119.032 26.9922C118.27 26.6719 117.59 26.5117 116.993 26.5117C116.539 26.5117 116.196 26.6113 115.961 26.8105C115.727 27.0059 115.61 27.2656 115.61 27.5898C115.61 27.8125 115.657 28.0039 115.75 28.1641C115.844 28.3203 115.998 28.4688 116.213 28.6094C116.428 28.75 116.815 28.9355 117.373 29.166C118.002 29.4277 118.463 29.6719 118.756 29.8984C119.049 30.125 119.264 30.3809 119.401 30.666C119.537 30.9512 119.606 31.2871 119.606 31.6738ZM129.179 25.4336V30.9766C129.179 31.6094 129.042 32.1641 128.769 32.6406C128.499 33.1133 128.107 33.4785 127.591 33.7363C127.079 33.9902 126.466 34.1172 125.751 34.1172C124.689 34.1172 123.862 33.8359 123.273 33.2734C122.683 32.7109 122.388 31.9375 122.388 30.9531V25.4336H123.794V30.8535C123.794 31.5605 123.958 32.082 124.286 32.418C124.614 32.7539 125.118 32.9219 125.798 32.9219C127.118 32.9219 127.779 32.2285 127.779 30.8418V25.4336H129.179ZM132.57 25.4336H135.113C136.293 25.4336 137.145 25.6055 137.668 25.9492C138.195 26.293 138.459 26.8359 138.459 27.5781C138.459 28.0781 138.33 28.4941 138.072 28.8262C137.814 29.1582 137.443 29.3672 136.959 29.4531V29.5117C137.561 29.625 138.002 29.8496 138.283 30.1855C138.568 30.5176 138.711 30.9688 138.711 31.5391C138.711 32.3086 138.441 32.9121 137.902 33.3496C137.367 33.7832 136.621 34 135.664 34H132.57V25.4336ZM133.971 28.9727H135.318C135.904 28.9727 136.332 28.8809 136.602 28.6973C136.871 28.5098 137.006 28.1934 137.006 27.748C137.006 27.3457 136.859 27.0547 136.566 26.875C136.277 26.6953 135.816 26.6055 135.184 26.6055H133.971V28.9727ZM133.971 30.1094V32.8223H135.459C136.045 32.8223 136.486 32.7109 136.783 32.4883C137.084 32.2617 137.234 31.9062 137.234 31.4219C137.234 30.9766 137.082 30.6465 136.777 30.4316C136.473 30.2168 136.01 30.1094 135.389 30.1094H133.971ZM146.632 31.6738C146.632 32.4355 146.356 33.0332 145.805 33.4668C145.255 33.9004 144.495 34.1172 143.526 34.1172C142.557 34.1172 141.764 33.9668 141.147 33.666V32.3418C141.538 32.5254 141.952 32.6699 142.389 32.7754C142.831 32.8809 143.241 32.9336 143.62 32.9336C144.175 32.9336 144.583 32.8281 144.845 32.6172C145.11 32.4062 145.243 32.123 145.243 31.7676C145.243 31.4473 145.122 31.1758 144.88 30.9531C144.637 30.7305 144.137 30.4668 143.38 30.1621C142.598 29.8457 142.048 29.4844 141.727 29.0781C141.407 28.6719 141.247 28.1836 141.247 27.6133C141.247 26.8984 141.501 26.3359 142.009 25.9258C142.516 25.5156 143.198 25.3105 144.054 25.3105C144.874 25.3105 145.69 25.4902 146.503 25.8496L146.057 26.9922C145.296 26.6719 144.616 26.5117 144.018 26.5117C143.565 26.5117 143.221 26.6113 142.987 26.8105C142.753 27.0059 142.636 27.2656 142.636 27.5898C142.636 27.8125 142.682 28.0039 142.776 28.1641C142.87 28.3203 143.024 28.4688 143.239 28.6094C143.454 28.75 143.841 28.9355 144.399 29.166C145.028 29.4277 145.489 29.6719 145.782 29.8984C146.075 30.125 146.29 30.3809 146.427 30.666C146.563 30.9512 146.632 31.2871 146.632 31.6738ZM153.134 26.5117C152.33 26.5117 151.697 26.7969 151.236 27.3672C150.775 27.9375 150.545 28.7246 150.545 29.7285C150.545 30.7793 150.765 31.5742 151.207 32.1133C151.652 32.6523 152.295 32.9219 153.134 32.9219C153.498 32.9219 153.849 32.8867 154.189 32.8164C154.529 32.7422 154.882 32.6484 155.25 32.5352V33.7363C154.578 33.9902 153.816 34.1172 152.964 34.1172C151.711 34.1172 150.748 33.7383 150.076 32.9805C149.404 32.2188 149.068 31.1309 149.068 29.7168C149.068 28.8262 149.23 28.0469 149.554 27.3789C149.882 26.7109 150.355 26.1992 150.972 25.8438C151.589 25.4883 152.314 25.3105 153.146 25.3105C154.021 25.3105 154.83 25.4941 155.572 25.8613L155.068 27.0273C154.779 26.8906 154.472 26.7715 154.148 26.6699C153.828 26.5645 153.49 26.5117 153.134 26.5117ZM159.696 29.418H160.668C161.321 29.418 161.793 29.2969 162.086 29.0547C162.379 28.8125 162.526 28.4531 162.526 27.9766C162.526 27.4922 162.368 27.1445 162.051 26.9336C161.735 26.7227 161.258 26.6172 160.621 26.6172H159.696V29.418ZM159.696 30.5781V34H158.295V25.4336H160.715C161.821 25.4336 162.639 25.6406 163.17 26.0547C163.702 26.4688 163.967 27.0938 163.967 27.9297C163.967 28.9961 163.412 29.7559 162.303 30.209L164.723 34H163.129L161.079 30.5781H159.696ZM167.171 34V25.4336H168.571V34H167.171ZM177.711 28.0234C177.711 28.918 177.418 29.6035 176.832 30.0801C176.246 30.5566 175.412 30.7949 174.33 30.7949H173.439V34H172.039V25.4336H174.506C175.576 25.4336 176.377 25.6523 176.908 26.0898C177.443 26.5273 177.711 27.1719 177.711 28.0234ZM173.439 29.6172H174.184C174.902 29.6172 175.43 29.4922 175.766 29.2422C176.102 28.9922 176.27 28.6016 176.27 28.0703C176.27 27.5781 176.119 27.2109 175.818 26.9688C175.518 26.7266 175.049 26.6055 174.412 26.6055H173.439V29.6172ZM183.581 34H182.18V26.6348H179.661V25.4336H186.1V26.6348H183.581V34ZM188.619 34V25.4336H190.019V34H188.619ZM201.092 29.7051C201.092 31.0996 200.743 32.1836 200.043 32.957C199.348 33.7305 198.362 34.1172 197.084 34.1172C195.791 34.1172 194.797 33.7344 194.102 32.9688C193.411 32.1992 193.065 31.1074 193.065 29.6934C193.065 28.2793 193.412 27.1934 194.108 26.4355C194.807 25.6777 195.803 25.2988 197.096 25.2988C198.37 25.2988 199.354 25.6836 200.049 26.4531C200.745 27.2227 201.092 28.3066 201.092 29.7051ZM194.553 29.7051C194.553 30.7598 194.766 31.5605 195.192 32.1074C195.618 32.6504 196.248 32.9219 197.084 32.9219C197.916 32.9219 198.543 32.6523 198.965 32.1133C199.391 31.5742 199.604 30.7715 199.604 29.7051C199.604 28.6543 199.393 27.8574 198.971 27.3145C198.553 26.7715 197.928 26.5 197.096 26.5C196.256 26.5 195.621 26.7715 195.192 27.3145C194.766 27.8574 194.553 28.6543 194.553 29.7051ZM211.269 34H209.552L205.339 27.1738H205.292L205.321 27.5547C205.376 28.2812 205.404 28.9453 205.404 29.5469V34H204.132V25.4336H205.831L210.032 32.2246H210.068C210.06 32.1348 210.044 31.8086 210.021 31.2461C209.997 30.6797 209.986 30.2383 209.986 29.9219V25.4336H211.269V34Z" fill="#122129"/>
<path fill-rule="evenodd" clip-rule="evenodd" d="M43 21C41.8954 21 41 21.8954 41 23V27H37C35.8954 27 35 27.8954 35 29C35 30.1046 35.8954 31 37 31H41V35C41 36.1046 41.8954 37 43 37C44.1046 37 45 36.1046 45 35V31H49C50.1046 31 51 30.1046 51 29C51 27.8954 50.1046 27 49 27H45V23C45 21.8954 44.1046 21 43 21Z" fill="#122129"/>
<defs>
<filter id="filter0_d" x="0" y="0" width="250" height="66" filterUnits="userSpaceOnUse" color-interpolation-filters="sRGB">
<feFlood flood-opacity="0" result="BackgroundImageFix"/>
<feColorMatrix in="SourceAlpha" type="matrix" values="0 0 0 0 0 0 0 0 0 0 0 0 0 0 0 0 0 0 127 0"/>
<feOffset dy="4"/>
<feGaussianBlur stdDeviation="5"/>
<feColorMatrix type="matrix" values="0 0 0 0 0.558333 0 0 0 0 0.383404 0 0 0 0 0.041875 0 0 0 0.2 0"/>
<feBlend mode="normal" in2="BackgroundImageFix" result="effect1_dropShadow"/>
<feBlend mode="normal" in="SourceGraphic" in2="effect1_dropShadow" result="shape"/>
</filter>
</defs>
</svg>
