<svg width="58" height="57" viewBox="0 0 58 57" fill="none" xmlns="http://www.w3.org/2000/svg">
<path fill-rule="evenodd" clip-rule="evenodd" d="M56.6108 19.6089C56.7191 19.9638 56.8113 20.2703 56.9035 20.6071C57.4748 22.7126 57.9318 24.8342 57.2763 27.6273C56.4425 31.1848 52.6441 35.4844 49.7577 37.1179C49.1123 37.483 48.4989 37.7169 47.9317 37.8137C48.545 40.0684 48.3346 42.7526 47.3604 45.0456C43.0569 55.1695 33.125 56.5005 29.054 56.6014C24.973 56.5005 15.0411 55.1695 10.7376 45.0456C9.76343 42.7526 9.55296 40.0684 10.1663 37.8137C9.59906 37.7169 8.98571 37.483 8.34029 37.1179C5.45592 35.4864 1.62947 30.9932 0.821688 27.4256C0.1021 24.2392 0.24241 23.0534 1.03416 21.1073C1.47513 20.0203 1.86399 18.5098 2.42723 16.0998C2.75423 14.7055 2.89678 13.417 3.02256 12.28L3.02455 12.262L3.02794 12.2313L3.02795 12.2312C3.09283 11.6436 3.15424 11.0875 3.23502 10.5801C3.88445 6.48815 4.18311 4.6227 8.49864 1.93442C10.5091 0.682045 13.3854 0.889766 15.444 1.28504C17.9756 1.77107 20.3949 2.74111 21.8481 3.50141C24.1572 2.73707 27.0295 2.54347 29.044 2.51725C31.0644 2.54347 33.9368 2.73707 36.2459 3.50141C39.2505 1.9324 45.364 0.147617 49.2526 1.9324C53.2294 3.75753 53.7986 6.20581 54.4621 10.3784C54.7086 11.9212 55.2118 14.1375 55.6708 16.1018C56.0857 17.8745 56.3763 18.8365 56.6108 19.6089ZM44.2596 21.7748C44.464 21.7688 44.6905 21.9261 44.7266 22.3052L44.7326 22.3234C44.6865 28.5651 45.5805 30.3862 47.0598 32.6449C47.4546 33.1349 48.1702 33.3608 48.6974 33.3608H48.8056H48.8174C49.3718 33.3608 50.0052 33.3609 50.7058 32.8022C52.598 31.2896 53.8788 29.2891 54.5162 26.8549C55.2235 24.1474 54.4326 21.9578 53.6671 19.8389L53.6663 19.8368C53.3717 19.02 53.0931 18.2476 52.9107 17.4732C52.7467 16.7754 52.5699 16.0678 52.3975 15.3783L52.3974 15.3778L52.3973 15.3775L52.3394 15.1459L52.337 15.1364L52.337 15.1363C51.9811 13.7181 51.6455 12.3808 51.4935 11.4251C50.808 7.1214 49.5733 5.05226 47.3664 4.50573C45.4642 4.03583 42.7783 4.47144 40.8521 5.54433C43.1431 7.13955 44.0631 8.36974 44.3738 8.78518L44.452 8.88804C44.7005 9.11391 44.7727 9.40028 44.6284 9.58985C44.5683 9.67052 44.3257 9.90244 43.7745 9.53137L43.7505 9.51322C41.6719 7.61751 37.5488 5.35476 29.7115 5.35476L29.4248 5.35275C29.0781 5.35073 28.5549 5.34871 28.4006 5.35476C20.3568 5.53627 16.3219 7.71633 14.3536 9.51523C14.079 9.79152 13.7923 9.91656 13.5718 9.85404C13.4456 9.81774 13.3554 9.72497 13.3253 9.5959C13.2752 9.38616 13.3974 9.12601 13.662 8.88199C13.6764 8.86752 13.7005 8.83523 13.7356 8.78801L13.7482 8.77107C14.0649 8.34756 15.003 7.0972 17.268 5.55643C15.2195 4.39884 11.9663 3.77366 10.3066 4.70135C7.50644 6.26631 6.9873 7.38962 6.40802 11.0258C6.18352 12.4354 5.75057 14.2888 5.24946 16.4325L5.19334 16.6705C5.00492 17.4812 4.84256 18.2133 4.70025 18.8587L4.69499 18.8824C4.35295 20.429 4.10528 21.549 3.78022 22.3476C3.16687 23.8561 2.99048 24.6486 3.55973 26.9961C4.03478 28.9583 5.41182 30.8722 6.54232 32.0096C7.6668 33.141 8.86945 33.3406 9.55898 33.1672C10.1102 33.0301 10.5231 32.7437 10.9861 32.1831C12.4955 29.882 14.2193 26.4536 14.1732 20.3087V20.2865C14.2072 19.9194 14.4257 19.7561 14.6181 19.7561H14.6302C14.8126 19.7642 15.009 19.9215 15.017 20.2502C15.1774 27.714 13.8585 33.4778 13.0587 36.2487C13.0306 36.3435 13.0126 36.406 13.0066 36.4323C12.4293 38.9511 12.1367 40.7843 13.2812 43.2528C17.3442 52.0113 26.3761 52.7555 29.048 52.7737C31.7179 52.7555 40.7498 52.0134 44.8128 43.2528C45.9253 40.8549 45.5645 38.6365 44.885 35.2182C44.8572 35.0806 44.7981 34.8819 44.7232 34.6299L44.7206 34.6213L44.7204 34.6206C44.2633 33.0896 43.1933 29.5059 43.8807 22.2528C43.8807 21.9442 44.0772 21.7829 44.2596 21.7748ZM23.8365 22.7772C23.8365 23.8353 22.8942 24.6931 21.7318 24.6931C20.5695 24.6931 19.6272 23.8353 19.6272 22.7772C19.6272 21.7191 20.5695 20.8613 21.7318 20.8613C22.8942 20.8613 23.8365 21.7191 23.8365 22.7772ZM28.2186 35.5727L28.2178 35.5727C24.8749 35.5237 18.1895 35.4256 18.162 40.0019C18.1299 45.0336 24.4379 48.823 29.048 48.823C33.6582 48.823 39.9661 45.0336 39.9341 40.0019C39.9065 35.4256 33.2212 35.5237 29.8782 35.5727L29.8775 35.5727C29.5701 35.5772 29.2911 35.5813 29.048 35.5813C28.805 35.5813 28.5259 35.5772 28.2186 35.5727ZM24.039 44.8582C24.039 44.8582 20.9241 42.8838 20.9381 40.5182C20.9482 38.7455 22.7201 38.2413 22.7201 38.2413C23.5058 38.0175 23.4377 38.8121 23.2372 38.8121C23.155 38.8121 22.4354 39.6187 22.8363 41.2321C23.2372 42.8455 23.8385 43.8538 24.3978 44.4447C24.957 45.0356 24.7325 45.2978 24.039 44.8582ZM29.8497 24.088C27.6068 19.8973 28.2462 16.6262 31.0524 13.6011C33.8586 10.5761 43.0789 8.3577 41.8763 16.4245C41.4004 19.6158 41.3208 21.7911 41.2619 23.4011C41.1577 26.2466 41.1182 27.3267 39.0701 29.1298C36.2879 31.5781 31.2528 26.7098 29.8497 24.088ZM34.2594 22.7772C34.2594 23.723 35.2015 24.4914 36.3641 24.4914C37.5267 24.4914 38.4687 23.723 38.4687 22.7772C38.4687 21.8313 37.5267 21.063 36.3641 21.063C35.2015 21.063 34.2594 21.8313 34.2594 22.7772Z" fill="#122129"/>
</svg>
