<svg width="8" height="5" viewBox="0 0 8 5" fill="none" xmlns="http://www.w3.org/2000/svg">
    <path fill-rule="evenodd" clip-rule="evenodd"
          d="M6.19889 0.241355C6.47985 -0.0630107 6.95434 -0.0819907 7.25871 0.198962C7.56307 0.479915 7.58205 0.954409 7.3011 1.25877L4.30687 4.50252C4.29831 4.51199 4.28946 4.52129 4.28033 4.5304C4.13475 4.67619 3.94266 4.75002 3.75 4.75007C3.63921 4.7501 3.52825 4.72573 3.42583 4.67661C3.3511 4.64083 3.28122 4.59205 3.21966 4.5304C3.21053 4.52128 3.20167 4.51198 3.19311 4.50251L0.198894 1.25877C-0.0820589 0.954409 -0.0630794 0.479915 0.241286 0.198962C0.545652 -0.0819906 1.02015 -0.0630108 1.3011 0.241355L3.75 2.89433L6.19889 0.241355Z"
          fill="#779EB2"/>
</svg>