<svg width="18" height="15" viewBox="0 0 18 15" fill="none" xmlns="http://www.w3.org/2000/svg">
<path fill-rule="evenodd" clip-rule="evenodd" d="M8.89377 3.05129C8.89377 4.51653 9.90591 5.70491 11.154 5.70491C12.4017 5.70491 13.4138 4.51653 13.4138 3.05129C13.4138 1.5854 12.4017 0.397095 11.154 0.397095C9.90591 0.397095 8.89377 1.58544 8.89377 3.05129ZM14.9171 7.74072C13.9589 7.37255 13.5334 6.16184 13.9661 5.03767C14.3992 3.91374 15.5267 3.30059 16.4837 3.66934C17.4411 4.03747 17.8661 5.24794 17.4341 6.37235C17.0009 7.49594 15.8733 8.1094 14.9171 7.74072ZM6.30544 8.05418C7.06257 6.87293 8.36912 6.15844 9.77196 6.15844C11.1746 6.15844 12.4812 6.8729 13.2383 8.05418L15.3226 11.3056C15.8934 12.1962 15.8137 13.3557 15.1268 14.1597C14.4389 14.9638 13.306 15.2227 12.3371 14.7969L12.3364 14.7963C10.7022 14.078 8.8415 14.078 7.20675 14.7969C6.23844 15.2227 5.10546 14.9641 4.41755 14.16C3.73003 13.356 3.65032 12.1962 4.22115 11.3056L6.30544 8.05418ZM6.93995 6.49365C5.75559 6.88721 4.4201 6.07851 3.95789 4.68802C3.49537 3.29733 4.08148 1.85032 5.26512 1.45679C6.44954 1.06325 7.785 1.87193 8.24687 3.26265C8.70912 4.65338 8.12358 6.10011 6.93995 6.49365ZM4.36363 6.74301C3.64664 5.77453 2.39726 5.48476 1.57183 6.0946C0.748241 6.70451 0.660143 7.98461 1.37624 8.95333C2.09364 9.92161 3.34448 10.2117 4.16807 9.60147C4.9919 8.99163 5.07976 7.71177 4.36363 6.74301Z" fill="#F7C25D"/>
</svg>
