<svg width="20" height="23" viewBox="0 0 20 23" fill="none" xmlns="http://www.w3.org/2000/svg">
<path fill-rule="evenodd" clip-rule="evenodd" d="M10 5L7.07118 0.205754C6.97232 0.081054 6.82732 0.00623501 6.66913 0H5.62119H5.608C5.48937 0 5.37732 0.0311754 5.27846 0.124701C5.27059 0.124701 5.26038 0.142471 5.25062 0.15945C5.24402 0.170917 5.23764 0.182024 5.23233 0.187051C5.15323 0.305516 5.10051 0.480095 5.16642 0.617266L6.47141 5H3L2.00939 3.69736C1.92371 3.57266 1.77871 3.49784 1.61394 3.49784H0.565985H0.552804C0.434169 3.49784 0.322123 3.52902 0.22326 3.62254C0.213185 3.62889 0.20482 3.64011 0.194679 3.6537C0.184919 3.66678 0.173513 3.68207 0.157352 3.69736C0.0584887 3.80959 0.0453073 3.97794 0.0914434 4.10264L0.730757 5.91703C0.855984 6.27866 0.849394 6.66523 0.717576 7.02062L0.025534 8.84125C-0.0206021 8.99089 -0.00741971 9.14676 0.0914434 9.27146C0.177125 9.39616 0.322124 9.47098 0.486896 9.47098H1.60075H1.61394C1.7128 9.47098 1.82484 9.43981 1.92371 9.34628L1.98961 9.28393L3 8H6.47141L5.14664 12.3827C5.09391 12.5199 5.12687 12.6882 5.22573 12.8129C5.30482 12.9376 5.43664 13 5.60141 13H6.64936H6.66254C6.78118 13 6.89322 12.9688 6.99209 12.8753L7.03822 12.8317L10 8H13.5434C13.9191 8.01247 14.2948 7.76883 14.5716 7.50695C14.855 7.24508 15 6.90839 15 6.53429C15 5.79233 14.3475 5.06235 13.5434 5H10ZM10 15L12.9288 10.2058C13.0277 10.0811 13.1727 10.0062 13.3309 10H14.3788H14.392C14.5106 10 14.6227 10.0312 14.7215 10.1247C14.7294 10.1247 14.7396 10.1425 14.7494 10.1594C14.756 10.1709 14.7624 10.182 14.7677 10.1871C14.8468 10.3055 14.8995 10.4801 14.8336 10.6173L13.5286 15H17L17.9906 13.6974C18.0763 13.5727 18.2213 13.4978 18.3861 13.4978H19.434H19.4472C19.5658 13.4978 19.6779 13.529 19.7767 13.6225C19.7868 13.6289 19.7952 13.6401 19.8053 13.6537C19.8151 13.6668 19.8265 13.6821 19.8426 13.6974C19.9415 13.8096 19.9547 13.9779 19.9086 14.1026L19.2692 15.917C19.144 16.2787 19.1506 16.6652 19.2824 17.0206L19.9745 18.8412C20.0206 18.9909 20.0074 19.1468 19.9086 19.2715C19.8229 19.3962 19.6779 19.471 19.5131 19.471H18.3992H18.3861C18.2872 19.471 18.1752 19.4398 18.0763 19.3463L18.0104 19.2839L17 18H13.5286L14.8534 22.3827C14.9061 22.5199 14.8731 22.6882 14.7743 22.813C14.6952 22.9377 14.5634 23 14.3986 23H13.3506H13.3375C13.2188 23 13.1068 22.9688 13.0079 22.8753L12.9618 22.8317L10 18H6.45658C6.0809 18.0125 5.70522 17.7688 5.42841 17.507C5.145 17.2451 5 16.9084 5 16.5343C5 15.7923 5.6525 15.0624 6.45658 15H10Z" fill="#122129"/>
</svg>
