<svg width="30" height="30" viewBox="0 0 30 30" fill="none" xmlns="http://www.w3.org/2000/svg">
<path fill-rule="evenodd" clip-rule="evenodd" d="M30 15C30 23.2843 23.2843 30 15 30C6.71573 30 0 23.2843 0 15C0 6.71573 6.71573 0 15 0C23.2843 0 30 6.71573 30 15ZM28 15C28 22.1797 22.1797 28 15 28C7.8203 28 2 22.1797 2 15C2 7.8203 7.8203 2 15 2C22.1797 2 28 7.8203 28 15ZM12.1634 20.8328C11.4555 20.5298 11.0006 19.8648 11 19.1317V10.8696C10.9996 10.1362 11.4543 9.47028 12.1627 9.16712C12.871 8.86395 13.702 8.97957 14.2873 9.46272L20.0651 14.2309C20.5499 14.6309 20.5498 15.3737 20.0649 15.7736L14.2873 20.5387C13.7017 21.0208 12.8713 21.1358 12.1634 20.8328Z" fill="#355A6E"/>
</svg>
