<svg width="170" height="240" viewBox="0 0 170 240" fill="none" xmlns="http://www.w3.org/2000/svg">
<path d="M91.7527 210.061C92.3667 210.089 92.9669 210.425 93.8879 210.466C93.7372 213.864 93.2658 217.557 93.1151 220.955C92.8411 227.133 96.3935 237.195 100.691 237.386C115.734 238.053 117.076 207.78 121.39 193.733C134.075 143.534 147.68 93.3762 161.272 43.5272C163.511 34.6504 169.182 24.6877 169.538 16.656C169.784 11.0956 165.665 6.88909 156.148 6.46703C152.157 6.29004 148.098 7.6576 145.396 13.1091C123.359 59.1789 98.8393 105.758 75.3089 150.833C73.3026 154.458 69.8299 156.471 67.5577 159.155C65.8802 155.367 63.2543 152.155 63.098 148.743C61.4038 124.526 60.6305 100.349 59.5502 76.1583C58.6673 54.4527 64.5406 19.1183 41.2097 18.0836C32.0001 17.6752 28.9359 24.3487 27.6313 32.9574C20.4123 77.8273 9.52318 122.225 3.18404 168.062C2.82226 169.284 2.75375 170.829 2.69895 172.064C2.20574 183.185 5.51712 205.618 13.8057 205.985C20.5594 206.285 24.1362 194.991 25.1201 186.678L38.6701 103.089C39.5444 97.247 42.5538 91.8091 44.6287 86.6393C45.5689 93.1809 47.7782 98.8503 48.4388 104.76C51.5173 132.444 53.3404 160.692 56.7396 188.08C57.1755 192.123 61.0293 195.389 63.3208 199.205C66.2206 196.239 70.0141 193.931 71.6997 190.601C83.2332 166.351 92.3383 141.374 103.817 118.359C104.834 116.238 107.01 115.715 108.921 114.252C109.746 116.455 110.878 118.672 110.795 120.526C110.256 125.764 109.074 131.592 107.934 136.494C102.54 161.016 96.8258 185.834 91.7527 210.061Z" fill="#FFC045"/>
<path d="M63.5 75.5L59.5 79.5L56.5 81V86L55 93.5L53 98.5L55 103.5L58.5 108.5H63.5L62.5 114L65.5 121L72.5 126.5L82.5 128.5L89.5 125.5L96 121L98.5 116V110.5L100 109.5L103.5 107.5L107.5 103.5V98.5V93.5L105.5 86.5L103.5 80L100.5 77.5H92.5L88 79.5L78.5 78.5H71.5L63.5 75.5Z" fill="#FFC045" stroke="black"/>
<path fill-rule="evenodd" clip-rule="evenodd" d="M108.611 93.6089C108.719 93.9638 108.811 94.2703 108.903 94.6071C109.475 96.7126 109.932 98.8342 109.276 101.627C108.442 105.185 104.644 109.484 101.758 111.118C101.112 111.483 100.499 111.717 99.9317 111.814C100.545 114.068 100.335 116.753 99.3604 119.046C95.0569 129.17 85.125 130.501 81.054 130.601C76.973 130.501 67.0411 129.17 62.7376 119.046C61.7634 116.753 61.553 114.068 62.1663 111.814C61.5991 111.717 60.9857 111.483 60.3403 111.118C57.4559 109.486 53.6295 104.993 52.8217 101.426C52.1021 98.2392 52.2424 97.0534 53.0342 95.1073C53.4751 94.0203 53.864 92.5098 54.4272 90.0998C54.7542 88.7055 54.8968 87.417 55.0226 86.28L55.0246 86.262L55.0279 86.2313L55.0279 86.2312C55.0928 85.6436 55.1542 85.0875 55.235 84.5801C55.8844 80.4882 56.1831 78.6227 60.4986 75.9344C62.5091 74.682 65.3854 74.8898 67.444 75.285C69.9756 75.7711 72.3949 76.7411 73.8481 77.5014C76.1572 76.7371 79.0295 76.5435 81.044 76.5173C83.0644 76.5435 85.9368 76.7371 88.2459 77.5014C91.2505 75.9324 97.364 74.1476 101.253 75.9324C105.229 77.7575 105.799 80.2058 106.462 84.3784C106.709 85.9212 107.212 88.1375 107.671 90.1018C108.086 91.8745 108.376 92.8365 108.611 93.6089ZM96.2596 95.7748C96.464 95.7688 96.6905 95.9261 96.7266 96.3052L96.7326 96.3234C96.6865 102.565 97.5805 104.386 99.0598 106.645C99.4546 107.135 100.17 107.361 100.697 107.361H100.806H100.817C101.372 107.361 102.005 107.361 102.706 106.802C104.598 105.29 105.879 103.289 106.516 100.855C107.224 98.1474 106.433 95.9578 105.667 93.8389L105.666 93.8368C105.372 93.02 105.093 92.2476 104.911 91.4732C104.747 90.7754 104.57 90.0678 104.397 89.3783L104.397 89.3778L104.397 89.3775L104.339 89.1459L104.337 89.1364L104.337 89.1363C103.981 87.7181 103.646 86.3808 103.494 85.4251C102.808 81.1214 101.573 79.0523 99.3664 78.5057C97.4642 78.0358 94.7783 78.4714 92.8521 79.5443C95.1431 81.1395 96.0631 82.3697 96.3738 82.7852L96.452 82.888C96.7005 83.1139 96.7727 83.4003 96.6284 83.5899C96.5683 83.6705 96.3257 83.9024 95.7745 83.5314L95.7504 83.5132C93.6719 81.6175 89.5488 79.3548 81.7115 79.3548L81.4248 79.3527C81.0781 79.3507 80.5549 79.3487 80.4006 79.3548C72.3568 79.5363 68.3219 81.7163 66.3536 83.5152C66.079 83.7915 65.7923 83.9166 65.5718 83.854C65.4456 83.8177 65.3554 83.725 65.3253 83.5959C65.2752 83.3862 65.3974 83.126 65.662 82.882C65.6764 82.8675 65.7005 82.8352 65.7356 82.788L65.7482 82.7711C66.0649 82.3476 67.003 81.0972 69.268 79.5564C67.2195 78.3988 63.9663 77.7737 62.3066 78.7013C59.5064 80.2663 58.9873 81.3896 58.408 85.0258C58.1835 86.4354 57.7506 88.2888 57.2495 90.4325L57.1933 90.6705C57.0049 91.4812 56.8426 92.2133 56.7002 92.8587L56.695 92.8824C56.353 94.429 56.1053 95.549 55.7802 96.3476C55.1669 97.8561 54.9905 98.6486 55.5597 100.996C56.0348 102.958 57.4118 104.872 58.5423 106.01C59.6668 107.141 60.8695 107.341 61.559 107.167C62.1102 107.03 62.5231 106.744 62.9861 106.183C64.4955 103.882 66.2193 100.454 66.1732 94.3087V94.2865C66.2072 93.9194 66.4257 93.7561 66.6181 93.7561H66.6302C66.8126 93.7642 67.009 93.9215 67.017 94.2502C67.1774 101.714 65.8585 107.478 65.0587 110.249C65.0306 110.344 65.0126 110.406 65.0066 110.432C64.4293 112.951 64.1367 114.784 65.2812 117.253C69.3442 126.011 78.3761 126.756 81.048 126.774C83.7179 126.756 92.7498 126.013 96.8128 117.253C97.9253 114.855 97.5645 112.637 96.885 109.218C96.8572 109.081 96.7981 108.882 96.7232 108.63L96.7206 108.621L96.7204 108.621C96.2633 107.09 95.1933 103.506 95.8807 96.2528C95.8807 95.9442 96.0772 95.7829 96.2596 95.7748ZM75.8365 96.7772C75.8365 97.8353 74.8942 98.6931 73.7318 98.6931C72.5695 98.6931 71.6272 97.8353 71.6272 96.7772C71.6272 95.7191 72.5695 94.8613 73.7318 94.8613C74.8942 94.8613 75.8365 95.7191 75.8365 96.7772ZM80.2186 109.573L80.2178 109.573C76.8749 109.524 70.1895 109.426 70.162 114.002C70.1299 119.034 76.4379 122.823 81.048 122.823C85.6582 122.823 91.9661 119.034 91.9341 114.002C91.9065 109.426 85.2212 109.524 81.8782 109.573L81.8775 109.573C81.5701 109.577 81.2911 109.581 81.048 109.581C80.805 109.581 80.5259 109.577 80.2186 109.573ZM76.039 118.858C76.039 118.858 72.9241 116.884 72.9381 114.518C72.9482 112.746 74.7201 112.241 74.7201 112.241C75.5058 112.017 75.4377 112.812 75.2372 112.812C75.155 112.812 74.4354 113.619 74.8363 115.232C75.2372 116.845 75.8385 117.854 76.3978 118.445C76.957 119.036 76.7325 119.298 76.039 118.858ZM81.8497 98.088C79.6068 93.8973 80.2462 90.6262 83.0524 87.6011C85.8586 84.5761 95.0789 82.3577 93.8763 90.4245C93.4004 93.6158 93.3208 95.7911 93.2619 97.4011C93.1577 100.247 93.1182 101.327 91.0701 103.13C88.2879 105.578 83.2528 100.71 81.8497 98.088ZM86.2594 96.7772C86.2594 97.723 87.2015 98.4914 88.3641 98.4914C89.5267 98.4914 90.4687 97.723 90.4687 96.7772C90.4687 95.8313 89.5267 95.063 88.3641 95.063C87.2015 95.063 86.2594 95.8313 86.2594 96.7772Z" fill="#122129"/>
</svg>
